<svg xmlns:xlink="http://www.w3.org/1999/xlink" xmlns="http://www.w3.org/2000/svg" width="230" height="104" viewBox="0 0 230 104">
    <defs>
        <path id="a" d="M0 .182h22.936V32H0z"/>
    </defs>
    <g fill="none" fill-rule="evenodd">
        <path fill="#4BC2C6" d="M138.278 28.539c-.038.265-.068.531-.115.794-.546 3.02-2.248 5.096-5.129 6.122-1.292.46-2.648.74-3.974 1.104-4.501 1.238-8.997 2.495-13.505 3.708-2.05.552-4.119 1.029-6.184 1.519-.48.114-.98.152-1.474.206-.175.02-.358 0-.533-.029-.347-.059-.553-.268-.602-.622-.079-.566-.003-1.127.095-1.684.161-.917.449-1.787 1.024-2.536a2.961 2.961 0 0 1 1.619-1.087c5.119-1.384 10.237-2.772 15.355-4.158 1.811-.49 3.623-.98 5.434-1.472 1.398-.38 2.302-1.252 2.633-2.684.031-.135.054-.274.06-.413.022-.59.04-1.181.051-1.773.007-.393-.28-.627-.662-.562-2.472.421-4.946.84-7.419 1.26-2.773.473-5.545.948-8.318 1.42-2.538.432-5.077.86-7.616 1.29-1.116.189-2.23.395-3.349.56-1.659.244-3.23-.062-4.704-.853-1.188-.637-2.123-1.548-2.86-2.675-3.94-6.026-7.884-12.05-11.822-18.077-.092-.14-.174-.167-.336-.137-1.88.352-3.76.697-5.643 1.037-2.728.493-5.296-1.314-5.825-4.09-.062-.326-.13-.65-.201-1 .337-.066.672-.132 1.007-.195 2.81-.53 5.619-1.059 8.428-1.586.742-.14 1.48-.317 2.227-.402 1.95-.222 3.483.511 4.571 2.146.596.894 1.152 1.813 1.741 2.711a5290.13 5290.13 0 0 0 7.471 11.362c.91 1.378 1.798 2.772 2.774 4.103 1.311 1.787 3.123 2.553 5.316 2.229 2.167-.32 4.32-.732 6.479-1.104 2.27-.39 4.54-.78 6.81-1.172 2.19-.378 4.381-.759 6.572-1.139 1.246-.215 2.493-.422 3.737-.65.893-.162 1.409-.869 1.353-1.775-.092-1.525-.17-3.05-.257-4.575-.105-1.863-.201-3.727-.322-5.59a3.017 3.017 0 0 0-3.187-2.831c-.584.035-1.163.178-1.743.282-2.097.376-4.194.756-6.291 1.135l-6.507 1.174c-2.103.38-4.207.758-6.31 1.14-.717.131-1.433.264-2.168.24-2.342-.073-4.274-1.001-5.791-2.79-.264-.312-.5-.647-.767-.995l1.771-.322c2.253-.407 4.506-.815 6.76-1.221 2.169-.392 4.338-.781 6.506-1.173l6.076-1.1 5.842-1.052c.86-.154 1.72-.307 2.58-.458.216-.038.434-.066.65-.099h.558c.033.013.065.033.1.037.335.04.675.051 1.004.12 2.771.58 4.645 2.209 5.622 4.87.299.812.373 1.662.41 2.521.078 1.85.173 3.7.26 5.55.073 1.552.141 3.103.214 4.655.086 1.837.176 3.673.262 5.51.07 1.485.136 2.971.206 4.456.002.035.023.069.036.103v.717z"/>
        <path fill="#5A53A2" d="M108.66 21c-1.14-.036-2.063-.472-2.697-1.395a275.085 275.085 0 0 1-3.438-5.148c-.608-.929-.037-2.072 1.09-2.272a7306.32 7306.32 0 0 0 17.204-3.093c1.93-.35 3.859-.698 5.786-1.056 1.18-.218 2.17.569 2.253 1.776.12 1.729.267 3.456.388 5.184.029.42.062.858-.018 1.265-.186.937-.92 1.56-1.886 1.716-2.406.39-4.81.789-7.215 1.183l-7.398 1.21c-1.196.195-2.391.394-3.588.587-.167.027-.338.03-.48.043M88.278 15.317l-1.697.273-6.823 1.099-6.804 1.092c-.687.11-1.372.248-2.077.213-2.571-.126-4.425-1.214-5.573-3.24-.009-.015-.013-.033-.026-.068.343-.057.68-.114 1.018-.168l8.664-1.395c2.154-.346 4.308-.695 6.462-1.04 2.484-.397 5.124.654 6.431 2.56.145.212.274.433.425.674M119.278 46.998c-.005 2.769-2.245 5.008-5.003 5.002a5.015 5.015 0 0 1-4.997-5.013c.005-2.75 2.25-4.99 4.998-4.987 2.771.004 5.007 2.238 5.002 4.998M132.363 37a4.863 4.863 0 0 1 4.795 3.897c.356 1.682-.089 3.172-1.218 4.423-1.103 1.221-2.495 1.77-4.104 1.668-2.29-.144-4.285-1.89-4.529-4.373-.188-1.91.538-3.448 2.019-4.586A4.844 4.844 0 0 1 132.363 37M73.278 21.168l2.82-.486c2.332-.402 4.664-.81 6.997-1.205.977-.166 1.952-.362 2.937-.452 1.46-.133 2.798.264 3.998 1.062a5.945 5.945 0 0 1 2.208 2.623c.012.03.02.06.04.114-.361.063-.71.125-1.06.185-2.556.44-5.112.882-7.67 1.32-1.233.212-2.464.445-3.705.615-1.309.179-2.556-.074-3.713-.68-1.269-.664-2.196-1.634-2.773-2.903-.027-.06-.05-.12-.08-.193M96.278 30.684c-.629.114-1.24.227-1.85.336-1.694.304-3.384.635-5.084.902-1.908.3-3.545-.272-4.885-1.645a5.022 5.022 0 0 1-1.151-1.87l-.03-.085 1.594-.29c1.752-.314 3.505-.619 5.255-.944 2.617-.486 5.325 1.083 6.15 3.596"/>
        <g transform="translate(32.278 72)">
            <mask id="b" fill="#fff">
                <use xlink:href="#a"/>
            </mask>
            <path fill="#4BC2C6" d="M16.63 14.172a5.41 5.41 0 0 1-1.185 1.876c-.507.519-1.1.926-1.776 1.23-.678.302-1.426.452-2.244.452-1.637 0-2.969-.552-3.998-1.659-1.03-1.107-1.545-2.55-1.545-4.334 0-1.812.514-3.283 1.545-4.419 1.03-1.135 2.348-1.704 3.956-1.704.819 0 1.573.159 2.265.476a5.63 5.63 0 0 1 1.797 1.294 5.823 5.823 0 0 1 1.186 1.938c.282.748.423 1.569.423 2.458 0 .863-.141 1.661-.423 2.392zm.424-11.23c-1.806-1.84-3.979-2.76-6.517-2.76a9.68 9.68 0 0 0-4.105.883A10.817 10.817 0 0 0 3.09 3.48C2.13 4.502 1.375 5.702.825 7.08A11.761 11.761 0 0 0 0 11.48c0 1.58.282 3.082.846 4.503a12.315 12.315 0 0 0 2.306 3.751 11.249 11.249 0 0 0 3.365 2.565 8.97 8.97 0 0 0 4.062.948c2.51 0 4.655-.931 6.432-2.802v1.681c0 .663-.162 1.274-.486 1.835a4.515 4.515 0 0 1-1.355 1.443 7.02 7.02 0 0 1-2.03.949 9.022 9.022 0 0 1-2.56.345c-1.27 0-2.433-.21-3.492-.626-1.057-.416-1.912-.999-2.56-1.746L3.047 28.94C5.105 30.98 7.828 32 11.214 32c1.749 0 3.335-.258 4.76-.775 1.425-.519 2.66-1.243 3.703-2.177a9.515 9.515 0 0 0 2.412-3.363c.564-1.308.847-2.766.847-4.377V.57h-5.882v2.372z" mask="url(#b)"/>
        </g>
        <path fill="#4BC2C6" d="M69.486 74.928v-2.624h-6.208V95h6.208V83.674c0-2.185.612-3.753 1.835-4.7 1.224-.948 2.909-1.421 5.054-1.421L78.278 72c-1.571 0-3.142.204-4.714.612a8.85 8.85 0 0 0-4.078 2.316M97.023 85.91a6.137 6.137 0 0 1-1.221 1.943 5.71 5.71 0 0 1-1.812 1.302 5.311 5.311 0 0 1-2.211.468 5.072 5.072 0 0 1-2.212-.49 5.964 5.964 0 0 1-1.811-1.323 6.177 6.177 0 0 1-1.222-1.922 6.08 6.08 0 0 1-.442-2.325c0-.824.147-1.614.442-2.367a6.308 6.308 0 0 1 1.222-1.984 5.805 5.805 0 0 1 1.811-1.345 5.111 5.111 0 0 1 2.212-.49c.785 0 1.522.165 2.211.49a5.84 5.84 0 0 1 1.812 1.345 6.394 6.394 0 0 1 1.664 4.351c0 .827-.149 1.608-.443 2.348m2.886-10.54a11.415 11.415 0 0 0-3.644-2.474C94.875 72.3 93.379 72 91.779 72c-1.574 0-3.055.3-4.445.897a11.656 11.656 0 0 0-3.665 2.473 11.683 11.683 0 0 0-2.485 3.693 11.277 11.277 0 0 0-.906 4.5c0 1.566.301 3.046.906 4.438a11.646 11.646 0 0 0 2.464 3.651 11.493 11.493 0 0 0 3.665 2.451c1.404.597 2.892.897 4.466.897 1.6 0 3.102-.3 4.507-.897 1.404-.596 2.618-1.406 3.644-2.432a11.577 11.577 0 0 0 2.443-3.625c.604-1.395.905-2.889.905-4.483 0-1.62-.301-3.127-.905-4.522a11.959 11.959 0 0 0-2.464-3.67"/>
        <path fill="#5A53A2" d="M122.026 82.84a16.011 16.011 0 0 0-3.018-1.395 129.23 129.23 0 0 0-3.017-.996c-.941-.297-1.72-.592-2.332-.89-.614-.294-.92-.642-.92-1.037 0-.565.334-1.018 1.006-1.355.67-.339 1.547-.509 2.632-.509 1.17 0 2.183.198 3.038.593.856.395 1.468.945 1.84 1.652l3.724-2.203c-.6-1.44-1.699-2.583-3.296-3.432-1.598-.845-3.452-1.268-5.564-1.268-1.282 0-2.48.161-3.593.487-1.113.325-2.07.781-2.868 1.376-.8.593-1.427 1.29-1.882 2.097a5.265 5.265 0 0 0-.686 2.645c0 1.132.306 2.078.92 2.84a8.12 8.12 0 0 0 2.269 1.927c.898.523 1.883.968 2.952 1.335 1.07.367 2.054.712 2.953 1.037.9.326 1.655.662 2.267 1.016.614.353.92.784.92 1.293 0 .564-.363 1.051-1.09 1.46-.727.412-1.62.615-2.675.615a7.48 7.48 0 0 1-3.06-.634c-.956-.426-1.675-.977-2.16-1.653l-4.108 2.456c.826 1.44 2.089 2.584 3.786 3.432 1.697.845 3.616 1.271 5.756 1.271 1.37 0 2.631-.178 3.788-.531 1.155-.353 2.153-.845 2.995-1.483.842-.634 1.498-1.382 1.968-2.244.471-.862.707-1.8.707-2.817 0-1.185-.308-2.189-.92-3.006-.614-.821-1.391-1.51-2.332-2.078M135.56 81.166c.448-1.23 1.137-2.185 2.065-2.872.927-.683 1.996-1.026 3.204-1.026 1.18 0 2.235.348 3.162 1.049.928.7 1.602 1.648 2.024 2.849H135.56zm13.954-5.206a10.697 10.697 0 0 0-3.71-2.911c-1.462-.7-3.078-1.049-4.848-1.049-1.603 0-3.114.298-4.533.897a11.936 11.936 0 0 0-3.709 2.441 11.644 11.644 0 0 0-2.509 3.62c-.619 1.386-.927 2.877-.927 4.477 0 1.57.295 3.063.886 4.475a11.474 11.474 0 0 0 2.423 3.684 11.68 11.68 0 0 0 3.605 2.486c1.376.613 2.837.92 4.385.92.843 0 1.686-.093 2.529-.279a13.095 13.095 0 0 0 2.402-.77c.76-.33 1.455-.729 2.087-1.201a7.49 7.49 0 0 0 1.581-1.561l-3.54-3.642c-1.21 1.457-2.686 2.185-4.428 2.185-1.32 0-2.501-.371-3.54-1.114-1.041-.742-1.744-1.684-2.108-2.826h16.652c.168-1.972.014-3.791-.465-5.462-.477-1.67-1.222-3.127-2.233-4.37zM163.486 74.928v-2.624h-6.208V95h6.208V83.674c0-2.185.612-3.753 1.835-4.7 1.225-.948 2.909-1.421 5.054-1.421L172.278 72c-1.571 0-3.142.204-4.714.612a8.851 8.851 0 0 0-4.078 2.316M192.023 85.916a6.045 6.045 0 0 1-1.2 1.945 5.566 5.566 0 0 1-1.812 1.283 5.499 5.499 0 0 1-2.275.469 5.346 5.346 0 0 1-2.253-.469 5.606 5.606 0 0 1-1.79-1.283 5.799 5.799 0 0 1-1.18-1.923c-.281-.741-.421-1.555-.421-2.44 0-.88.146-1.695.441-2.436a6.362 6.362 0 0 1 1.202-1.945 5.439 5.439 0 0 1 1.79-1.303 5.355 5.355 0 0 1 2.254-.472c.813 0 1.565.157 2.253.472a5.462 5.462 0 0 1 1.79 1.303 6.306 6.306 0 0 1 1.2 1.967c.295.756.443 1.561.443 2.415 0 .856-.148 1.662-.442 2.417zm.442-13.576v2.436a8.043 8.043 0 0 0-2.886-2.072c-1.11-.471-2.31-.704-3.601-.704-1.46 0-2.844.292-4.149.876a10.606 10.606 0 0 0-3.413 2.414 11.566 11.566 0 0 0-2.296 3.613 11.656 11.656 0 0 0-.842 4.424c0 1.57.288 3.057.864 4.47a12.285 12.285 0 0 0 2.338 3.72 11.28 11.28 0 0 0 3.411 2.543 9.342 9.342 0 0 0 4.128.94c2.528 0 4.677-.954 6.446-2.863v2.436h5.813V72.34h-5.813z"/>
    </g>
</svg>
