<svg xmlns="http://www.w3.org/2000/svg" width="230" height="104" viewBox="0 0 230 104">
    <g fill="none" fill-rule="evenodd">
        <g fill-rule="nonzero">
            <path fill="#5949C3" d="M135.899 91.188a7.55 7.55 0 0 1-1.581 1.563 10.37 10.37 0 0 1-2.087 1.2c-.759.328-1.56.585-2.403.77-.843.186-1.686.279-2.53.279-1.545 0-3.007-.307-4.384-.92a11.674 11.674 0 0 1-3.605-2.485 11.516 11.516 0 0 1-2.424-3.683 11.499 11.499 0 0 1-.885-4.476c0-1.6.31-3.091.927-4.476a11.619 11.619 0 0 1 2.509-3.62 11.872 11.872 0 0 1 3.71-2.44c1.42-.6 2.93-.9 4.532-.9 1.77 0 3.386.35 4.848 1.05 1.461.699 2.698 1.67 3.71 2.912s1.756 2.698 2.234 4.369c.478 1.67.633 3.49.464 5.46h-16.652c.365 1.143 1.068 2.085 2.107 2.827 1.04.743 2.22 1.114 3.542 1.114 1.742 0 3.218-.728 4.426-2.185l3.542 3.641zm-3.05-9.988c-.432-1.166-1.122-2.088-2.07-2.768-.95-.68-2.028-1.02-3.236-1.02-1.236 0-2.33.333-3.278.999-.95.666-1.654 1.596-2.114 2.789h10.698zM69 83.564c0-1.593.302-3.094.906-4.502a11.66 11.66 0 0 1 2.485-3.69 11.627 11.627 0 0 1 3.665-2.476A11.135 11.135 0 0 1 80.5 72c1.6 0 3.096.299 4.486.896a11.38 11.38 0 0 1 3.644 2.475 11.91 11.91 0 0 1 2.464 3.67c.604 1.394.906 2.901.906 4.523 0 1.593-.302 3.087-.906 4.48a11.569 11.569 0 0 1-2.443 3.628 11.42 11.42 0 0 1-3.644 2.432C83.603 94.7 82.101 95 80.5 95c-1.573 0-3.061-.299-4.465-.896a11.49 11.49 0 0 1-3.665-2.454 11.647 11.647 0 0 1-2.464-3.648A11.045 11.045 0 0 1 69 83.564zm17.384 0c0-.849-.15-1.64-.448-2.376a6.343 6.343 0 0 0-1.235-1.952A5.87 5.87 0 0 0 82.87 77.9a5.214 5.214 0 0 0-2.236-.488c-.795 0-1.54.162-2.236.488a5.87 5.87 0 0 0-1.832 1.336 6.279 6.279 0 0 0-1.235 1.973 6.313 6.313 0 0 0-.447 2.355c0 .82.149 1.59.447 2.312.298.721.71 1.358 1.235 1.91.525.55 1.136.99 1.832 1.314a5.214 5.214 0 0 0 2.236.488c.795 0 1.54-.155 2.236-.466a5.744 5.744 0 0 0 1.831-1.294 6.082 6.082 0 0 0 1.235-1.93 6.151 6.151 0 0 0 .448-2.334zM25 83.36c0-1.56.276-3.035.827-4.422.552-1.388 1.309-2.595 2.27-3.62a10.802 10.802 0 0 1 3.353-2.43c1.273-.592 2.645-.888 4.116-.888 2.547 0 4.725.925 6.535 2.775 0-1.317 1.056-2.385 2.357-2.385H47.2c.442 0 .8.363.8.81v20.047c0 1.618-.283 3.085-.849 4.4a9.565 9.565 0 0 1-2.419 3.383c-1.046.94-2.284 1.67-3.713 2.19-1.428.52-3.02.78-4.774.78-3.394 0-6.124-1.026-8.19-3.079l1.486-4.64c.65.752 1.506 1.338 2.567 1.757 1.06.42 2.228.629 3.5.629.934 0 1.79-.116 2.568-.347.778-.231 1.457-.55 2.037-.954a4.527 4.527 0 0 0 1.358-1.453 3.622 3.622 0 0 0 .488-1.843v-1.69c-1.782 1.878-3.932 2.818-6.45 2.818-1.443 0-2.8-.318-4.074-.954a11.31 11.31 0 0 1-3.374-2.58 12.388 12.388 0 0 1-2.312-3.772A12.21 12.21 0 0 1 25 83.36zm10.923 6.02c.822 0 1.574-.152 2.255-.454a5.771 5.771 0 0 0 1.787-1.231 5.425 5.425 0 0 0 1.19-1.88 6.598 6.598 0 0 0 .426-2.397c0-.892-.141-1.713-.425-2.462a5.852 5.852 0 0 0-1.191-1.944 5.654 5.654 0 0 0-1.809-1.295 5.423 5.423 0 0 0-2.276-.476c-1.617 0-2.943.57-3.978 1.707-1.036 1.137-1.553 2.613-1.553 4.427 0 1.786.517 3.233 1.553 4.341 1.035 1.109 2.375 1.663 4.02 1.663zM58.795 74.93c1.071-1.137 2.34-1.91 3.806-2.318A16.34 16.34 0 0 1 67 72l-1.776 5.553c-2.002 0-3.574.474-4.716 1.421-1.142.948-1.713 2.515-1.713 4.7V95H53V72.984c0-.375.3-.678.671-.678h2.525c1.435 0 2.599 1.175 2.599 2.624zM99.108 87.842c.485.677 1.205 1.228 2.161 1.652a7.466 7.466 0 0 0 3.06.635c1.055 0 1.947-.205 2.674-.614.728-.41 1.092-.897 1.092-1.462 0-.508-.307-.939-.92-1.291-.614-.353-1.37-.692-2.268-1.017-.9-.325-1.883-.67-2.953-1.038A16.538 16.538 0 0 1 99 83.373a8.099 8.099 0 0 1-2.268-1.927c-.613-.763-.92-1.709-.92-2.838 0-.96.228-1.843.685-2.648a6.753 6.753 0 0 1 1.883-2.096c.798-.593 1.754-1.052 2.867-1.377 1.112-.325 2.31-.487 3.594-.487 2.111 0 3.966.424 5.563 1.27 1.598.848 2.696 1.992 3.295 3.432l-3.723 2.202c-.37-.706-.984-1.256-1.84-1.652-.855-.395-1.868-.593-3.038-.593-1.084 0-1.961.17-2.632.509-.67.338-1.005.79-1.005 1.355 0 .395.306.741.92 1.038.613.296 1.39.593 2.332.89.941.296 1.947.628 3.017.995 1.07.367 2.075.833 3.017 1.397a8.038 8.038 0 0 1 2.332 2.076c.613.819.92 1.821.92 3.007a5.778 5.778 0 0 1-.706 2.817c-.47.861-1.127 1.61-1.969 2.245-.841.635-1.84 1.13-2.995 1.483-1.155.353-2.418.529-3.787.529-2.14 0-4.058-.424-5.756-1.27-1.697-.848-2.96-1.992-3.787-3.432l4.108-2.456zM156.018 72c1.283 0 2.474.246 3.572.74a8.908 8.908 0 0 1 2.844 2c.798.84 1.425 1.84 1.882 3 .456 1.159.684 2.405.684 3.738V95h-5.86V81.826c0-1.246-.42-2.268-1.261-3.065-.841-.797-1.903-1.196-3.187-1.196a4.85 4.85 0 0 0-1.903.37 4.623 4.623 0 0 0-1.518 1.022c-.428.434-.763.949-1.005 1.543a5.074 5.074 0 0 0-.364 1.935V95H144V73.069c0-.374.304-.678.68-.678h2.867c1.3 0 2.355 1.051 2.355 2.348.656-.87 1.519-1.543 2.588-2.022 1.07-.478 2.245-.717 3.528-.717zM176 72v22h-6V72a6.034 6.034 0 0 0 6 0z"/>
            <path fill="#31CFCF" d="M170 67.477c0-.99.291-1.816.874-2.48.583-.665 1.285-.997 2.106-.997.848 0 1.563.332 2.146.997.583.664.874 1.49.874 2.48 0 .989-.291 1.823-.874 2.503-.583.68-1.298 1.02-2.146 1.02-.821 0-1.523-.34-2.106-1.02-.583-.68-.874-1.514-.874-2.503z"/>
            <path fill="#5949C3" d="M203.133 81.597l.002-.007.007.06c.068.42.113.85.134 1.287.388 3.57.774 6.036 1.158 7.397.647 2.29 1.079 3.869-.669 4.395-1.16.35-2.825-.344-4.997-2.081a11.936 11.936 0 0 1-2.558 1.456c-1.421.597-2.943.896-4.564.896-1.593 0-3.1-.299-4.522-.896a11.647 11.647 0 0 1-3.711-2.454 11.64 11.64 0 0 1-2.496-3.648 10.926 10.926 0 0 1-.917-4.438c0-1.593.306-3.094.917-4.502a11.652 11.652 0 0 1 2.517-3.69 11.784 11.784 0 0 1 3.711-2.476 11.4 11.4 0 0 1 4.501-.896c1.621 0 3.135.299 4.543.896a11.531 11.531 0 0 1 3.69 2.475 11.901 11.901 0 0 1 2.496 3.67c.356.813.61 1.665.758 2.556zm-5.529 1.967c0-.849-.15-1.64-.453-2.376a6.333 6.333 0 0 0-1.25-1.952 5.942 5.942 0 0 0-1.855-1.336 5.337 5.337 0 0 0-2.265-.488c-.805 0-1.56.162-2.264.488a5.942 5.942 0 0 0-1.855 1.336 6.268 6.268 0 0 0-1.25 1.973 6.243 6.243 0 0 0-.454 2.355c0 .82.151 1.59.453 2.312a6.137 6.137 0 0 0 3.106 3.224c.704.326 1.46.488 2.264.488.806 0 1.56-.155 2.265-.466a5.817 5.817 0 0 0 1.855-1.294 6.073 6.073 0 0 0 1.25-1.93 6.084 6.084 0 0 0 .453-2.334z"/>
        </g>
        <path fill="#4BC2C6" d="M138 28.539c-.038.265-.068.531-.115.794-.546 3.02-2.248 5.096-5.129 6.122-1.292.46-2.648.74-3.974 1.104-4.501 1.238-8.997 2.495-13.505 3.708-2.05.552-4.119 1.029-6.184 1.519-.48.114-.98.152-1.474.206-.175.02-.358 0-.533-.029-.347-.059-.553-.268-.602-.622-.079-.566-.003-1.127.095-1.684.161-.917.449-1.787 1.024-2.536a2.961 2.961 0 0 1 1.619-1.087c5.119-1.384 10.237-2.772 15.355-4.158 1.811-.49 3.623-.98 5.434-1.472 1.399-.38 2.302-1.252 2.633-2.684.032-.135.054-.274.06-.413.022-.59.041-1.181.051-1.773.007-.393-.28-.627-.662-.562-2.472.421-4.946.84-7.419 1.26-2.773.473-5.545.948-8.318 1.42-2.538.432-5.077.86-7.616 1.29-1.116.189-2.229.395-3.349.56-1.658.244-3.23-.062-4.704-.853-1.188-.637-2.123-1.548-2.86-2.675-3.94-6.026-7.884-12.05-11.822-18.077-.092-.14-.174-.167-.336-.137-1.88.352-3.76.697-5.643 1.037-2.728.493-5.296-1.314-5.825-4.09-.062-.326-.13-.65-.201-1 .338-.066.672-.132 1.007-.195 2.81-.53 5.619-1.059 8.428-1.586.742-.14 1.48-.317 2.227-.402 1.951-.222 3.483.511 4.572 2.146.595.894 1.151 1.813 1.74 2.711a5290.13 5290.13 0 0 0 7.471 11.362c.91 1.378 1.798 2.772 2.774 4.103 1.311 1.787 3.123 2.553 5.316 2.229 2.167-.32 4.32-.732 6.479-1.104 2.27-.39 4.54-.78 6.81-1.172 2.19-.378 4.382-.759 6.572-1.139 1.246-.215 2.493-.422 3.737-.65.893-.162 1.409-.869 1.354-1.775-.093-1.525-.171-3.05-.258-4.575-.105-1.863-.201-3.727-.322-5.59a3.017 3.017 0 0 0-3.187-2.831c-.584.035-1.163.178-1.743.282-2.097.376-4.194.756-6.291 1.135l-6.507 1.174c-2.103.38-4.207.758-6.31 1.14-.717.131-1.433.264-2.168.24-2.342-.073-4.274-1.001-5.791-2.79-.264-.312-.5-.647-.767-.995l1.771-.322 6.76-1.221c2.169-.392 4.338-.781 6.506-1.173l6.076-1.1 5.842-1.052c.86-.154 1.72-.307 2.58-.458.216-.038.434-.066.65-.099h.558c.033.013.066.033.1.037.335.04.675.051 1.004.12 2.771.58 4.645 2.209 5.622 4.87.3.812.373 1.662.41 2.521.078 1.85.173 3.7.26 5.55.073 1.552.141 3.103.214 4.655.086 1.837.176 3.673.262 5.51.07 1.485.136 2.971.206 4.456.002.035.024.069.036.103v.717z"/>
        <path fill="#5A53A2" d="M108.383 21c-1.142-.036-2.064-.472-2.697-1.395a275.084 275.084 0 0 1-3.44-5.148c-.607-.929-.036-2.072 1.092-2.272 3.123-.556 6.245-1.118 9.367-1.68 2.612-.47 5.225-.941 7.837-1.414 1.929-.35 3.858-.697 5.785-1.055 1.18-.218 2.17.569 2.253 1.776.12 1.729.267 3.456.388 5.184.029.42.062.858-.018 1.265-.186.937-.92 1.56-1.886 1.716-2.406.39-4.81.789-7.215 1.183l-7.398 1.21c-1.196.195-2.391.394-3.587.587-.168.027-.34.03-.481.043M88 15.317l-1.697.273-6.823 1.099c-2.267.364-4.536.727-6.803 1.092-.688.11-1.372.248-2.078.213-2.571-.126-4.425-1.214-5.573-3.24-.009-.015-.012-.033-.026-.068.343-.057.68-.114 1.018-.168l8.664-1.395c2.154-.346 4.308-.695 6.462-1.04 2.484-.397 5.124.654 6.431 2.56.146.212.274.433.425.674M119 46.998c-.005 2.769-2.245 5.008-5.003 5.002A5.015 5.015 0 0 1 109 46.987c.005-2.75 2.25-4.99 4.998-4.987 2.771.004 5.007 2.238 5.002 4.998M132.085 37a4.863 4.863 0 0 1 4.795 3.897c.356 1.682-.089 3.172-1.218 4.423-1.103 1.221-2.495 1.77-4.104 1.668-2.29-.144-4.285-1.89-4.529-4.373-.188-1.91.538-3.448 2.019-4.586A4.844 4.844 0 0 1 132.085 37M73.278 21.168l2.82-.486c2.332-.402 4.664-.81 6.997-1.205.977-.166 1.952-.362 2.937-.452 1.46-.133 2.798.264 3.998 1.062a5.945 5.945 0 0 1 2.208 2.623c.012.03.02.06.04.114-.361.063-.71.125-1.06.185-2.556.44-5.112.882-7.67 1.32-1.233.212-2.464.445-3.705.615-1.309.179-2.556-.074-3.713-.68-1.269-.664-2.196-1.634-2.773-2.903-.027-.06-.05-.12-.08-.193M96.278 30.684c-.629.114-1.24.227-1.85.336-1.694.304-3.384.635-5.084.902-1.908.3-3.545-.272-4.885-1.645a5.022 5.022 0 0 1-1.151-1.87l-.03-.085 1.594-.29c1.752-.314 3.505-.619 5.255-.944 2.617-.486 5.325 1.083 6.15 3.596"/>
    </g>
</svg>
